<?xml version="1.0" encoding="UTF-8" standalone="no"?>
<!DOCTYPE svg PUBLIC "-//W3C//DTD SVG 1.1//EN" "http://www.w3.org/Graphics/SVG/1.1/DTD/svg11.dtd">
<!-- Created with Vectornator (http://vectornator.io/) -->
<svg height="100%" stroke-miterlimit="10" style="fill-rule:nonzero;clip-rule:evenodd;stroke-linecap:round;stroke-linejoin:round;" version="1.1" viewBox="0 0 1080 1080" width="100%" xml:space="preserve" xmlns="http://www.w3.org/2000/svg" xmlns:vectornator="http://vectornator.io" xmlns:xlink="http://www.w3.org/1999/xlink">
<defs>
<path d="M487.867 413.326C487.867 263.964 540.126 226.649 540.126 226.649C540.126 226.649 592.385 263.964 592.385 413.326C592.385 562.688 540.126 806.681 540.126 806.681C540.126 806.681 487.867 562.688 487.867 413.326Z" id="Fill"/>
<path d="M540.504 220C540.504 220 498.052 246.675 484.987 353.348L247.799 378.224C247.102 378.297 246.567 378.907 246.575 379.621L246.719 393.327C246.718 393.327 101.197 410.019 96.2977 413.353C96.2977 413.353 76.504 386.692 66.9192 421.694C55.0833 464.916 57.135 508.365 83.2646 588.37C83.2646 588.37 92.3899 558.216 94.6776 550.044C97.9438 538.377 96.1113 530.035 111.023 523.368L245.098 513.483C245.882 513.425 246.575 514.041 246.575 514.843L246.575 521.934C246.575 522.712 247.181 523.352 247.943 523.331L429.974 518.297L265.764 630.002L454.78 565.698L370.569 711.686L480.811 597.923L499.424 673.875L484.771 695.041C484.606 695.293 483.131 703.079 483.151 703.382C483.151 703.382 484.936 751.979 488.047 788.373C489.365 803.795 489.605 823.291 491.324 825.045C494.59 828.378 496.214 831.722 506.013 828.389L530.171 799.36L540.144 840L550.441 797.89C555.621 804.439 572.166 825.286 576.219 828.389C582.751 833.389 589.311 826.714 590.944 820.047L596.057 729.471L597.461 705.035C597.476 704.737 597.451 700.041 594.184 695.041L580.971 673.251L599.441 597.887L709.682 711.686L625.255 565.294L814.487 626.107L651.501 518.297L833.101 523.331C833.862 523.352 834.469 522.712 834.469 521.934L834.469 516.496C834.469 515.701 835.131 515.053 835.909 515.1L971.641 523.368C982.858 530.035 983.308 537.007 987.77 553.352C992.34 570.089 997.563 581.682 997.563 581.682C1018.79 530.012 1028.6 458.355 1010.63 413.353C1008.68 408.471 1003.9 402.108 997.779 403.358C992.733 404.388 988.259 409.386 986.834 411.111C986.529 411.48 986.366 411.699 986.366 411.699L971.641 410.009L835.657 393.51C834.976 393.428 834.469 392.814 834.469 392.114L834.469 379.584C834.469 378.876 833.935 378.297 833.245 378.224L596.057 353.348C584.625 250.009 540.504 220 540.504 220Z" id="Fill_2"/>
</defs>
<clipPath id="ArtboardFrame">
<rect height="1080" width="1080" x="0" y="0"/>
</clipPath>
<g clip-path="url(#ArtboardFrame)" id="Calque-1" vectornator:layerName="Calque 1">
<path d="M-118.154-95.885L1644.22-95.885L1644.22 1100L-118.154 1100L-118.154-95.885Z" fill="#2d3a54" fill-rule="nonzero" opacity="0" stroke="none" vectornator:layerName="Rectangle 1"/>
<g opacity="1" vectornator:layerName="Grouper 2">
<g opacity="1" vectornator:layerName="Ovale 1">
<use fill="#c2c2c2" fill-opacity="0" fill-rule="nonzero" stroke="none" xlink:href="#Fill"/>
<mask height="622.465" id="StrokeMask" maskUnits="userSpaceOnUse" width="118.655" x="480.799" y="217.964">
<rect fill="#ffffff" height="622.465" stroke="none" width="118.655" x="480.799" y="217.964"/>
<use fill="#000000" fill-rule="evenodd" stroke="none" xlink:href="#Fill"/>
</mask>
<use fill="none" mask="url(#StrokeMask)" stroke="#ffffff" stroke-linecap="butt" stroke-linejoin="miter" stroke-width="14.1362" xlink:href="#Fill"/>
</g>
<path d="M618.271 409.702L594.494 373.944L595.106 407.815L618.271 409.702Z" fill="none" opacity="1" stroke="#ffffff" stroke-linecap="butt" stroke-linejoin="round" stroke-width="6.31601" vectornator:layerName="Rectangle 32"/>
<path d="M507.464 399.992C507.464 380.661 522.087 364.99 540.126 364.99C558.165 364.99 572.788 380.661 572.788 399.992C572.788 419.323 558.165 434.994 540.126 434.994C522.087 434.994 507.464 419.323 507.464 399.992Z" fill="#ffffff" fill-opacity="0" fill-rule="nonzero" opacity="1" stroke="#ffffff" stroke-linecap="butt" stroke-linejoin="round" stroke-width="4.11336" vectornator:layerName="Ovale 3"/>
<path d="M507.464 565.001C507.464 546.591 522.087 531.666 540.126 531.666C558.165 531.666 572.788 546.591 572.788 565.001C572.788 583.412 558.165 598.336 540.126 598.336C522.087 598.336 507.464 583.412 507.464 565.001Z" fill="none" opacity="1" stroke="#ffffff" stroke-linecap="butt" stroke-linejoin="round" stroke-width="4.11336" vectornator:layerName="Ovale 4"/>
<g opacity="1" vectornator:layerName="Grouper 1">
<path d="M539.676 447.954C520.702 447.954 505.293 463.685 505.293 483.089C505.293 502.493 520.703 518.223 539.676 518.223C558.65 518.223 574.018 502.493 574.018 483.089C574.018 463.684 558.65 447.954 539.676 447.954ZM539.676 452.864C555.94 452.864 569.083 466.392 569.083 483.089C569.083 499.785 555.94 513.355 539.676 513.355C523.413 513.355 510.228 499.785 510.228 483.089C510.228 466.392 523.413 452.865 539.676 452.864Z" fill="#ffffff" fill-rule="nonzero" opacity="1" stroke="none" vectornator:layerName="Courbe 7"/>
<path d="M562.571 485.544C562.571 485.544 552.578 485.419 547.515 490.327C544.672 493.084 544.265 498.051 545.151 500.614L559.294 488.846L547.64 502.815C550.35 503.44 554.779 502.933 557.345 500.444C562.408 495.536 562.571 485.544 562.571 485.544Z" fill="#ffffff" fill-rule="nonzero" opacity="1" stroke="none" vectornator:layerName="Courbe 6"/>
<path d="M516.74 485.544C516.74 485.544 517.02 495.502 522.132 500.36C524.654 502.756 528.909 503.306 531.63 502.73L520.017 488.846L534.243 500.656C535.217 498.171 534.794 492.967 531.837 490.158C526.725 485.301 516.74 485.544 516.74 485.544Z" fill="#ffffff" fill-rule="nonzero" opacity="1" stroke="none" vectornator:layerName="Courbe 5"/>
<path d="M539.676 456.124C539.676 456.124 529.847 465.961 529.847 475.765C529.847 481.355 534.543 486.666 537.976 488.168L539.676 462.685L541.377 488.168C544.808 486.652 549.465 481.343 549.465 475.765C549.465 465.961 539.676 456.124 539.676 456.124Z" fill="#ffffff" fill-rule="nonzero" opacity="1" stroke="none" vectornator:layerName="Courbe 4"/>
<path d="M539.656 495.362L539.656 492.093L539.656 508.435L539.656 495.362Z" fill="#ffffff" fill-rule="nonzero" opacity="1" stroke="#ffffff" stroke-linecap="butt" stroke-linejoin="round" stroke-width="3.58822" vectornator:layerName="Ovale 10"/>
</g>
<path d="M517.263 550L562.989 550L562.989 561.668L546.658 561.668L546.658 588.336L535.227 588.336L535.227 561.668L517.263 561.668L517.263 550Z" fill="#ffffff" fill-rule="nonzero" opacity="1" stroke="none" vectornator:layerName="Rectangle 13"/>
<path d="M518.902 378.996L518.902 389.505L546.66 389.505L546.66 392.996L518.902 392.959L518.902 392.996L518.902 403.505L518.902 419.232L531.611 419.232C532.059 419.232 543.684 419.232 552.313 419.232C564.624 419.232 564.626 413.999 564.626 406.996C564.626 399.998 564.626 403.505 564.626 403.505C564.626 396.896 564.606 394.746 558.073 392.996C558.073 392.996 558.073 394.755 558.073 389.505C558.073 384.255 558.092 378.996 546.66 378.996L518.902 378.996ZM531.611 403.505L553.177 403.505L553.177 406.996L531.611 407.033L531.611 403.505Z" fill="#ffffff" fill-rule="nonzero" opacity="1" stroke="none" vectornator:layerName="Courbe 2"/>
<g opacity="1" vectornator:layerName="Courbe 4">
<use fill="#ffffff" fill-opacity="0" fill-rule="nonzero" stroke="none" xlink:href="#Fill_2"/>
<mask height="620" id="StrokeMask_2" maskUnits="userSpaceOnUse" width="960" x="60" y="220">
<rect fill="#000000" height="620" stroke="none" width="960" x="60" y="220"/>
<use fill="#ffffff" fill-rule="evenodd" stroke="none" xlink:href="#Fill_2"/>
</mask>
<use fill="none" mask="url(#StrokeMask_2)" stroke="#ffffff" stroke-linecap="butt" stroke-linejoin="miter" stroke-width="16.9726" xlink:href="#Fill_2"/>
</g>
<path d="M255.658 408.168L243.329 427.654L255.658 408.168Z" fill="#ffffff" fill-rule="nonzero" opacity="1" stroke="#ffffff" stroke-linecap="butt" stroke-linejoin="round" stroke-width="6.31601" vectornator:layerName="Rectangle 28"/>
<path d="M108.988 416.66L131.022 413.842L115.167 438.901L108.987 439.513L108.988 416.66Z" fill="none" opacity="1" stroke="#ffffff" stroke-linecap="butt" stroke-linejoin="round" stroke-width="6.31601" vectornator:layerName="RectIangle 19"/>
<path d="M210.374 403.214L236.546 400.112L217.681 429.928L192.167 432.005L210.374 403.214Z" fill="none" opacity="1" stroke="#ffffff" stroke-linecap="butt" stroke-linejoin="round" stroke-width="6.31601" vectornator:layerName="Rectangle 29"/>
<path d="M157.337 410.514L183.627 407.226L166.003 435.081L140.36 437.347L157.337 410.514Z" fill="none" opacity="1" stroke="#ffffff" stroke-linecap="butt" stroke-linejoin="round" stroke-width="6.31601" vectornator:layerName="Rectangle 30"/>
<path d="M244.522 425.001L242.902 426.654L242.902 455.389L224.937 456.675L224.937 428.345L223.317 429.998L223.317 456.785L205.351 458.071L205.351 429.998L203.695 429.998L203.695 458.182L185.729 459.468L185.729 431.652L184.109 433.342L184.109 459.578L166.144 460.864L166.144 433.342L164.524 436.649L164.524 461.011L146.558 462.297L146.558 436.649L144.902 436.649L144.902 462.407L126.936 463.693L126.936 439.993L125.316 439.993L125.316 463.804L108.971 464.98L108.971 468.323L125.316 467.148L125.316 488.974L108.971 490.003L108.971 493.347L125.316 492.318L125.316 515.614L126.936 518.333L126.936 492.208L144.902 491.069L144.902 514.438L146.558 516.68L146.558 490.958L164.524 489.819L164.524 513.226L166.144 516.68L166.144 489.709L184.109 488.57L184.109 512.013L185.729 514.99L185.729 488.46L203.695 487.321L203.695 510.69L205.351 513.336L205.351 487.21L223.317 486.071L223.317 509.441L224.937 513.336L224.937 485.961L242.902 484.822L242.902 508.155L244.522 511.683L244.522 484.712L251.541 484.263L251.611 480.914L244.522 481.368L244.522 458.586L251.469 458.089L251.398 454.751L244.522 455.242L244.522 425.001ZM242.902 458.733L242.902 481.478L224.937 482.617L224.937 460.019L242.902 458.733ZM223.317 460.129L223.317 482.727L205.351 483.867L205.351 461.415L223.317 460.129ZM203.695 461.526L203.695 483.977L185.729 485.116L185.729 462.812L203.695 461.526ZM184.109 462.922L184.109 485.226L166.144 486.365L166.144 464.208L184.109 462.922ZM164.524 464.355L164.524 486.475L146.558 487.615L146.558 465.641L164.524 464.355ZM144.902 465.751L144.902 487.725L126.936 488.864L126.936 467.037L144.902 465.751Z" fill="#ffffff" fill-rule="nonzero" opacity="1" stroke="#ffffff" stroke-linecap="butt" stroke-linejoin="bevel" stroke-width="3.52573" vectornator:layerName="Courbe 5"/>
<path d="M108.988 436.661L252.7 423.327L252.7 429.93L108.988 443.328L108.988 436.661Z" fill="#ffffff" fill-rule="nonzero" opacity="1" stroke="none" vectornator:layerName="Rectangle 25"/>
<path d="M285.374 379.974L311.745 377.289L284.373 418.423L258.872 419.801L285.374 379.974Z" fill="none" opacity="1" stroke="#ffffff" stroke-linecap="butt" stroke-linejoin="round" stroke-width="6.31601" vectornator:layerName="Rectangle 36"/>
<path d="M338.128 374.586L364.486 371.922L335.623 415.211L310.142 416.644L338.128 374.586Z" fill="none" opacity="1" stroke="#ffffff" stroke-linecap="butt" stroke-linejoin="round" stroke-width="6.31601" vectornator:layerName="Rectangle 37"/>
<path d="M391.318 368.545L417.553 366.065L386.386 412.676L360.746 414.487L391.318 368.545Z" fill="none" opacity="1" stroke="#ffffff" stroke-linecap="butt" stroke-linejoin="round" stroke-width="6.31601" vectornator:layerName="Rectangle 38"/>
<path d="M443.788 363.584L470.024 361.104L437.189 410.446L411.73 411.761L443.788 363.584Z" fill="none" opacity="1" stroke="#ffffff" stroke-linecap="butt" stroke-linejoin="round" stroke-width="6.31601" vectornator:layerName="Rectangle 39"/>
<path d="M462.674 409.093L485.56 374.701L484.463 408.223L462.674 409.093Z" fill="none" opacity="1" stroke="#ffffff" stroke-linecap="butt" stroke-linejoin="round" stroke-width="6.31601" vectornator:layerName="Rectangle 40"/>
<path d="M252.7 416.66L252.7 383.325L259.233 382.657L259.233 416.66L484.189 404.886L484.03 411.522L252.7 423.327L252.7 416.66Z" fill="#ffffff" fill-rule="nonzero" opacity="1" stroke="none" vectornator:layerName="Rectangle 41"/>
<path d="M272.298 458.329L283.729 458.329L283.729 485.208L314.758 484.997L314.758 496.664L283.907 496.664C272.298 496.664 272.298 491.664 272.298 484.905L272.298 458.329Z" fill="#ffffff" fill-rule="nonzero" opacity="1" stroke="none" vectornator:layerName="Rectangle 9"/>
<path d="M318.024 458.329L329.456 458.329L329.456 496.664L318.024 496.664L318.024 458.329Z" fill="#ffffff" fill-rule="nonzero" opacity="1" stroke="none" vectornator:layerName="Rectangle 16"/>
<path d="M383.348 458.329L394.78 458.329L394.78 473.268L419.277 473.33L419.277 458.329L430.708 458.329L430.708 496.664L419.277 496.664L419.277 481.663L394.78 482.107L394.78 496.664L383.348 496.664L383.348 458.329Z" fill="#ffffff" fill-rule="nonzero" opacity="1" stroke="none" vectornator:layerName="Rectangle 17"/>
<path d="M433.974 458.329L479.701 458.329L479.701 469.996L463.37 469.996L463.37 496.664L451.939 496.664L451.939 469.996L433.974 469.996L433.974 458.329Z" fill="#ffffff" fill-rule="nonzero" opacity="1" stroke="none" vectornator:layerName="Rectangle 18"/>
<path d="M344.154 458.329C355.586 458.329 380.082 458.329 380.082 458.329L380.082 469.996L344.154 470.082L344.154 485.208L368.762 485.041L368.65 481.663L350.686 481.663L350.686 473.33C350.686 473.33 367.017 473.33 374.149 473.33C380.082 473.33 380.082 478.33 380.082 480.277C380.082 484.997 380.082 484.997 380.082 484.997C380.082 491.664 380.082 496.664 368.65 496.664L344.332 496.664C332.722 496.664 332.722 491.664 332.722 484.905C332.722 478.33 332.722 476.663 332.722 470.021C332.722 463.329 332.722 458.329 344.154 458.329Z" fill="#ffffff" fill-rule="nonzero" opacity="1" stroke="none" vectornator:layerName="Rectangle 19"/>
<path d="M971.295 436.661L827.687 423.327L827.687 429.93L971.295 443.328L971.295 436.661Z" fill="#ffffff" fill-rule="nonzero" opacity="1" stroke="none" vectornator:layerName="Rectangle 2"/>
<path d="M827.687 416.66L827.687 383.325L821.16 382.657L821.16 416.66L595.7 404.851L596.242 411.507L827.687 423.327L827.687 416.66Z" fill="#ffffff" fill-rule="nonzero" opacity="1" stroke="none" vectornator:layerName="Rectangle 33"/>
<path d="M824.665 408.063L836.63 426.988L824.665 408.063Z" fill="none" opacity="1" stroke="#ffffff" stroke-linecap="butt" stroke-linejoin="round" stroke-width="6.31601" vectornator:layerName="Rectangle 23"/>
<path d="M971.295 416.66L949.277 413.842L965.215 439.507L971.387 439.805L971.295 416.66Z" fill="none" opacity="1" stroke="#ffffff" stroke-linecap="butt" stroke-linejoin="round" stroke-width="6.31601" vectornator:layerName="RectIangle 18"/>
<path d="M869.983 403.214L843.83 400.112L862.59 429.786L888.149 432.336L869.983 403.214Z" fill="none" opacity="1" stroke="#ffffff" stroke-linecap="butt" stroke-linejoin="round" stroke-width="6.31601" vectornator:layerName="Rectangle 24"/>
<path d="M922.981 410.514L896.711 407.226L914.169 434.84L939.632 436.85L922.981 410.514Z" fill="none" opacity="1" stroke="#ffffff" stroke-linecap="butt" stroke-linejoin="round" stroke-width="6.31601" vectornator:layerName="Rectangle 25"/>
<path d="M835.837 425.001L835.837 455.279L829.297 454.807L829.248 458.148L835.837 458.623L835.837 481.368L829.297 480.949L829.371 484.297L835.837 484.712L835.837 511.683L837.493 508.155L837.493 484.822L855.423 485.961L855.423 513.336L857.079 509.441L857.079 486.071L875.008 487.21L875.008 513.336L876.629 510.69L876.629 487.321L894.594 488.46L894.594 514.99L896.214 512.013L896.214 488.57L914.18 489.709L914.18 516.68L915.8 513.226L915.8 489.819L933.765 490.958L933.765 516.68L935.386 514.438L935.386 491.069L953.351 492.208L953.351 518.333L954.971 515.614L954.971 492.318L971.281 493.347L971.281 490.003L954.971 488.974L954.971 467.148L971.281 468.323L971.281 464.98L954.971 463.804L954.971 439.993L953.351 439.993L953.351 463.693L935.386 462.407L935.386 436.649L933.765 436.649L933.765 462.297L915.8 461.011L915.8 436.649L914.18 433.342L914.18 460.864L896.214 459.578L896.214 433.342L894.594 431.652L894.594 459.468L876.629 458.182L876.629 429.998L875.008 429.998L875.008 458.071L857.079 456.785L857.079 429.998L855.423 428.345L855.423 456.675L837.493 455.389L837.493 426.654L835.837 425.001ZM837.493 458.733L855.423 460.019L855.423 482.617L837.493 481.478L837.493 458.733ZM857.079 460.129L875.008 461.415L875.008 483.867L857.079 482.727L857.079 460.129ZM876.629 461.526L894.594 462.812L894.594 485.116L876.629 483.977L876.629 461.526ZM896.214 462.922L914.18 464.208L914.18 486.365L896.214 485.226L896.214 462.922ZM915.8 464.355L933.765 465.641L933.765 487.615L915.8 486.475L915.8 464.355ZM935.386 465.751L953.351 467.037L953.351 488.864L935.386 487.725L935.386 465.751Z" fill="#ffffff" fill-rule="nonzero" opacity="1" stroke="#ffffff" stroke-linecap="butt" stroke-linejoin="round" stroke-width="3.52573" vectornator:layerName="Courbe 6"/>
<path d="M795.037 379.974L768.686 377.289L796.367 418.919L821.614 419.942L795.037 379.974Z" fill="none" opacity="1" stroke="#ffffff" stroke-linecap="butt" stroke-linejoin="round" stroke-width="6.31601" vectornator:layerName="Rectangle 28"/>
<path d="M742.322 374.586L715.983 371.922L745.091 415.696L770.783 417.389L742.322 374.586Z" fill="none" opacity="1" stroke="#ffffff" stroke-linecap="butt" stroke-linejoin="round" stroke-width="6.31601" vectornator:layerName="Rectangle 29"/>
<path d="M689.171 368.545L662.955 366.065L694.351 413.281L719.593 414.295L689.171 368.545Z" fill="none" opacity="1" stroke="#ffffff" stroke-linecap="butt" stroke-linejoin="round" stroke-width="6.31601" vectornator:layerName="Rectangle 30"/>
<path d="M636.739 363.584L610.522 361.104L643.741 411.06L669.194 412.393L636.739 363.584Z" fill="none" opacity="1" stroke="#ffffff" stroke-linecap="butt" stroke-linejoin="round" stroke-width="6.31601" vectornator:layerName="Rectangle 31"/>
<path d="M669.141 458.329L700.17 458.329L700.17 468.329L669.141 468.329L669.141 471.573L700.17 471.663L700.17 481.663L669.141 481.663L669.141 485.208L700.17 484.997L700.17 496.664L669.319 496.664C657.709 496.664 657.709 491.664 657.709 484.905L657.709 468.329C657.709 463.243 657.709 458.329 669.141 458.329Z" fill="#ffffff" fill-rule="nonzero" opacity="1" stroke="none" vectornator:layerName="Rectangle 10"/>
<path d="M641.692 484.997L641.692 481.579C641.692 481.579 628.942 481.61 620.222 481.631C607.083 481.663 607.083 476.551 607.083 469.996C607.083 463.329 607.083 458.329 607.083 458.329L619.834 458.329L619.834 471.663L641.692 471.663L641.692 458.329L654.443 458.329C654.443 458.329 654.443 474.996 654.443 484.997C654.443 491.664 654.443 496.664 642.151 496.664C632.976 496.664 620.032 496.664 620.032 496.664L607.083 496.664L607.083 484.905L641.692 484.997Z" fill="#ffffff" fill-rule="nonzero" opacity="1" stroke="none" vectornator:layerName="Rectangle 11"/>
<path d="M757.328 458.329C757.328 458.329 778.559 458.329 789.99 458.329C799.789 458.329 799.789 463.329 799.789 469.996C799.789 471.155 799.739 473.57 799.739 473.57C799.789 479.997 799.789 483.33 789.99 483.33L799.789 496.664L786.724 496.664L776.925 483.33L768.76 483.33L768.76 496.664L757.328 496.664L757.328 473.33L789.99 473.33L789.99 469.996L757.328 469.996L757.328 458.329Z" fill="#ffffff" fill-rule="nonzero" opacity="1" stroke="none" vectornator:layerName="Rectangle 12"/>
<path d="M723.687 458.329C721.969 458.329 720.75 460.789 720.303 461.672C715.241 471.673 703.454 496.654 703.454 496.654L715.443 496.654L719.367 488.313L738.233 488.313L742.193 496.654L754.074 496.654C754.074 496.654 742.936 473.026 737.189 461.672C736.895 461.092 735.492 458.329 733.804 458.329C730.429 458.329 727.063 458.329 723.687 458.329ZM728.764 468.323L733.516 478.318L724.083 478.281L728.764 468.323Z" fill="#ffffff" fill-rule="nonzero" opacity="1" stroke="none" vectornator:layerName="Courbe 3"/>
</g>
</g>
</svg>
