<?xml version="1.0" encoding="UTF-8" standalone="no"?>
<!DOCTYPE svg PUBLIC "-//W3C//DTD SVG 1.1//EN" "http://www.w3.org/Graphics/SVG/1.1/DTD/svg11.dtd">
<!-- Created with Vectornator (http://vectornator.io/) -->
<svg height="100%" stroke-miterlimit="10" style="fill-rule:nonzero;clip-rule:evenodd;stroke-linecap:round;stroke-linejoin:round;" version="1.1" viewBox="0 0 878.85 595.35" width="100%" xml:space="preserve" xmlns="http://www.w3.org/2000/svg" xmlns:vectornator="http://vectornator.io" xmlns:xlink="http://www.w3.org/1999/xlink">
<defs/>
<clipPath id="ArtboardFrame">
<rect height="595.35" width="878.85" x="0" y="0"/>
</clipPath>
<g clip-path="url(#ArtboardFrame)" id="Calque-1" vectornator:layerName="Calque 1" visibility="hidden">
<path d="M-73.71-56.7L951.142-56.7L951.142 671.895L-73.71 671.895L-73.71-56.7Z" fill="#000000" fill-rule="nonzero" opacity="1" stroke="#000000" stroke-linecap="butt" stroke-linejoin="round" stroke-width="0.01" vectornator:layerName="Rectangle 3"/>
</g>
<g id="Border" vectornator:layerName="Border" visibility="hidden">
<path d="M438.007 51.03L378.472 249.48L199.868 199.868L378.472 299.092L290.829 447.93L438.007 299.092L585.186 447.93L497.543 299.092L676.148 202.632L497.543 249.48L438.007 51.03Z" fill="#f9cc76" fill-rule="nonzero" opacity="0" stroke="#f9cc76" stroke-linecap="butt" stroke-linejoin="round" stroke-width="19.3407" vectornator:layerName="Étoile 3"/>
<path d="M438.007 540.068L378.473 301.928L199.868 361.462L378.473 242.393L438.007 242.393L497.543 242.392L676.148 358.145L497.543 301.928L438.007 540.068Z" fill="#f9cc76" fill-rule="nonzero" opacity="0" stroke="#f9cc76" stroke-linecap="butt" stroke-linejoin="round" stroke-width="19.104" vectornator:layerName="Étoile 2"/>
<path d="M184.249 287.72C183.588 287.738 183.043 287.207 183.043 286.546L183.043 280.51C183.043 279.828 182.464 279.289 181.784 279.339L65.3905 287.753C53.865 292.005 53.865 297.675 50.1208 309.035C49.9694 309.495 49.786 309.955 49.6125 310.433C43.9425 326.025 41.1075 334.53 41.1075 334.53C26.5746 290.931 22.3544 267.509 22.68 243.81C22.8625 230.524 26.7542 205.474 28.35 201.285C39.69 171.517 52.4475 195.615 52.4475 195.615C55.2825 195.615 56.7357 193.33 60.9525 192.78C93.555 188.528 183.189 177.16 183.189 177.16L183.055 165.502C183.048 164.895 183.506 164.382 184.11 164.32L389.998 143.168C401.338 52.4475 438.193 29.7675 438.193 29.7675C438.193 29.7675 476.466 55.2825 486.388 143.168L692.288 164.322C692.888 164.383 693.343 164.888 693.343 165.49L693.343 176.144C693.343 176.739 693.788 177.24 694.379 177.311L809.393 191.363C809.393 191.363 819.315 192.78 822.15 194.197C823.943 195.094 825.313 192.593 825.578 192.28C826.815 190.812 829.11 187.986 833.49 187.11C838.806 186.047 844.243 193.023 846.247 197.032C849.082 202.702 853.335 229.635 853.335 248.062C853.335 284.32 839.844 316.919 834.908 338.782C834.908 338.782 831.448 327.988 827.82 314.685C823.567 299.092 822.15 287.752 810.81 287.752L694.587 280.739C693.912 280.699 693.343 281.235 693.343 281.912L693.343 286.546C693.343 287.207 692.798 287.738 692.137 287.72L484.605 282.111C484.006 282.095 483.491 282.531 483.409 283.125L466.604 404.964C466.565 405.248 466.631 405.537 466.79 405.776C466.79 405.776 486.202 433.755 487.62 438.007C488.517 440.697 483.368 535.815 483.368 535.815C483.368 535.815 483.368 545.737 476.28 548.572C468.274 551.775 459.27 538.65 459.27 538.65L445.095 521.64C444.854 521.345 438.007 542.903 438.007 542.903L432.337 521.64L409.657 547.155C409.657 547.155 405.28 550.421 399.735 548.572C395.483 547.155 394.065 541.485 394.065 541.485C390.928 514.297 387.301 438.779 388.395 436.59C391.23 430.92 409.596 405.776 409.596 405.776C409.755 405.537 409.821 405.248 409.782 404.964L392.977 283.125C392.895 282.531 392.38 282.095 391.781 282.111L184.249 287.72Z" fill="#ffffff" fill-rule="nonzero" opacity="1" stroke="#ffffff" stroke-linecap="butt" stroke-linejoin="round" stroke-width="22.4099" vectornator:layerName="Rectangle 2"/>
<path d="M184.249 287.72C183.588 287.738 183.043 287.207 183.043 286.546L183.043 280.51C183.043 279.828 182.464 279.289 181.784 279.339L65.3905 287.752C53.865 292.005 53.865 297.675 50.1208 309.035C49.9694 309.495 49.786 309.955 49.6125 310.432C43.9425 326.025 41.1075 334.53 41.1075 334.53C26.5746 290.931 22.3544 267.509 22.68 243.81C22.8625 230.524 26.7542 205.474 28.35 201.285C39.69 171.517 52.4475 195.615 52.4475 195.615C55.2825 195.615 56.7357 193.33 60.9525 192.78C93.555 188.527 183.189 177.16 183.189 177.16L183.055 165.502C183.048 164.895 183.506 164.382 184.11 164.32L389.998 143.168C401.338 52.4475 438.193 29.7675 438.193 29.7675C438.193 29.7675 476.466 55.2825 486.388 143.168L692.288 164.322C692.888 164.383 693.343 164.888 693.343 165.49L693.343 176.144C693.343 176.739 693.788 177.24 694.379 177.311L809.393 191.362C809.393 191.362 819.315 192.78 822.15 194.197C823.943 195.094 825.313 192.593 825.578 192.28C826.815 190.812 829.11 187.986 833.49 187.11C838.806 186.047 844.243 193.023 846.247 197.032C849.082 202.702 853.335 229.635 853.335 248.062C853.335 284.32 839.844 316.919 834.908 338.782C834.908 338.782 831.448 327.988 827.82 314.685C823.567 299.092 822.15 287.752 810.81 287.752L694.587 280.739C693.912 280.699 693.343 281.235 693.343 281.912L693.343 286.546C693.343 287.207 692.798 287.738 692.137 287.72L484.605 282.111C484.006 282.095 483.491 282.531 483.409 283.125L466.604 404.964C466.565 405.248 466.631 405.537 466.79 405.776C466.79 405.776 486.203 433.755 487.62 438.007C488.517 440.697 483.368 535.815 483.368 535.815C483.368 535.815 483.368 545.737 476.28 548.572C468.274 551.775 459.27 538.65 459.27 538.65L445.095 521.64C444.854 521.345 438.008 542.902 438.008 542.902L432.338 521.64L409.658 547.155C409.658 547.155 405.28 550.421 399.735 548.572C395.483 547.155 394.065 541.485 394.065 541.485C390.928 514.297 387.301 438.779 388.395 436.59C391.23 430.92 409.596 405.776 409.596 405.776C409.755 405.537 409.821 405.248 409.782 404.964L392.977 283.125C392.895 282.531 392.38 282.095 391.781 282.111L184.249 287.72Z" fill="#000000" fill-rule="nonzero" opacity="1" stroke="#000000" stroke-linecap="butt" stroke-linejoin="round" stroke-width="0.01" vectornator:layerName="Rectangle 1"/>
</g>
<g id="WingPrt1" vectornator:layerName="WingPrt1">
<g opacity="1" vectornator:layerName="Grouper 2">
<path d="M63.7875 197.032L245.228 174.352L245.228 248.062L63.7875 259.402L63.7875 197.032Z" fill="#e1463b" fill-rule="nonzero" opacity="1" stroke="none" vectornator:layerName="Rectangle 27"/>
<path d="M197.222 180.321L219.939 177.683L186.412 229.605L163.696 232.242L197.222 180.321Z" fill="#ffffff" fill-rule="nonzero" opacity="1" stroke="none" vectornator:layerName="Rectangle 28"/>
<path d="M63.7875 197.032L82.9128 194.636L67.4819 218.533L63.7875 214.042L63.7875 197.032Z" fill="#ffffff" fill-rule="nonzero" opacity="1" stroke="none" vectornator:layerName="RectIangle 19"/>
<path d="M151.789 185.597L174.506 182.959L140.979 234.88L118.262 237.518L151.789 185.597Z" fill="#ffffff" fill-rule="nonzero" opacity="1" stroke="none" vectornator:layerName="Rectangle 29"/>
<path d="M105.754 191.806L128.573 189.009L95.5458 240.156L72.8292 242.794L105.754 191.806Z" fill="#ffffff" fill-rule="nonzero" opacity="1" stroke="none" vectornator:layerName="Rectangle 30"/>
<path d="M26.9325 248.062C26.9325 212.051 33.2789 191.362 41.1075 191.362C48.9361 191.362 55.2825 212.051 55.2825 248.062C55.2825 284.074 41.1075 321.773 41.1075 321.773C41.1075 321.773 26.9325 284.074 26.9325 248.062Z" fill="#6fac55" fill-rule="nonzero" opacity="1" stroke="none" vectornator:layerName="Ovale 4"/>
<path d="M29.7675 248.062C29.7675 218.295 34.02 195.615 41.1075 194.197L41.1075 316.103C41.1075 316.103 29.7675 284.074 29.7675 248.062Z" fill="#ffffff" fill-rule="nonzero" opacity="0" stroke="none" vectornator:layerName="Ovale 5"/>
<path d="M52.4566 201.252C53.4953 200.779 55.41 197.787 63.7875 197.032L63.7875 282.083C63.7875 282.083 51.6434 283.227 48.3836 297.99L48.2844 198.071C49.9439 201.754 50.9646 201.932 52.4566 201.252Z" fill="#6fac55" fill-rule="nonzero" opacity="1" stroke="none" vectornator:layerName="Rectangle 31"/>
<path d="M63.7875 216.877L245.228 199.868L245.228 270.743L80.7953 281.02L63.7875 282.083L63.7875 216.877Z" fill="#020080" fill-rule="nonzero" opacity="1" stroke="none" vectornator:layerName="Rectangle 17"/>
<path d="M63.7875 259.402L245.228 248.062L245.228 250.897L63.7875 262.238L63.7875 259.402Z" fill="#ffffff" fill-rule="nonzero" opacity="1" stroke="#ffffff" stroke-linecap="butt" stroke-linejoin="round" stroke-width="0.01" vectornator:layerName="Rectan gle 5"/>
<path d="M63.7875 238.14L245.228 225.382L245.228 228.217L63.7875 240.975L63.7875 238.14Z" fill="#ffffff" fill-rule="nonzero" opacity="1" stroke="#ffffff" stroke-linecap="butt" stroke-linejoin="round" stroke-width="0.01" vectornator:layerName="Rectan gle 6"/>
<path d="M77.9625 216.877L79.38 216.877L79.38 283.5L77.9625 281.186L77.9625 216.877Z" fill="#ffffff" fill-rule="nonzero" opacity="1" stroke="none" vectornator:layerName="Rectangle 18"/>
<path d="M111.982 214.042L113.4 211.207L113.4 282.083L111.982 279.172L111.982 214.042Z" fill="#ffffff" fill-rule="nonzero" opacity="1" stroke="none" vectornator:layerName="Rectangle 19"/>
<path d="M128.993 211.207L130.41 209.79L130.41 280.665L128.993 278.14L128.993 211.207Z" fill="#ffffff" fill-rule="nonzero" opacity="1" stroke="none" vectornator:layerName="Rectangle 20"/>
<path d="M146.002 208.372L147.42 208.372L147.42 279.248L146.002 277.002L146.002 208.372Z" fill="#ffffff" fill-rule="nonzero" opacity="1" stroke="none" vectornator:layerName="Rectangle 21"/>
<path d="M163.012 208.372L164.43 206.955L164.43 279.248L163.012 275.946L163.012 208.372Z" fill="#ffffff" fill-rule="nonzero" opacity="1" stroke="none" vectornator:layerName="Rectangle 22"/>
<path d="M180.022 205.537L181.44 204.12L181.44 277.83L180.022 274.859L180.022 205.537Z" fill="#ffffff" fill-rule="nonzero" opacity="1" stroke="none" vectornator:layerName="Rectangle 23"/>
<path d="M94.9725 214.042L96.39 214.042L96.39 282.083L94.9725 280.187L94.9725 214.042Z" fill="#ffffff" fill-rule="nonzero" opacity="1" stroke="none" vectornator:layerName="Rectangle 24"/>
<path d="M63.7875 214.043L188.527 202.703L188.527 208.318L63.7875 219.712L63.7875 214.043Z" fill="#4ba732" fill-rule="nonzero" opacity="1" stroke="none" vectornator:layerName="Rectangle 25"/>
<path d="M188.527 168.683L415.327 146.002L389.812 255.15L199.868 265.072L188.527 168.683Z" fill="#e1463b" fill-rule="nonzero" opacity="1" stroke="none" vectornator:layerName="Rectangle 35"/>
<path d="M216.888 165.833L239.777 163.55L205.806 213.57L190.179 205.159L216.888 165.833Z" fill="#ffffff" fill-rule="nonzero" opacity="1" stroke="none" vectornator:layerName="Rectangle 36"/>
<path d="M262.677 161.251L285.555 158.985L251.349 209.351L228.577 211.461L262.677 161.251Z" fill="#ffffff" fill-rule="nonzero" opacity="1" stroke="none" vectornator:layerName="Rectangle 37"/>
<path d="M308.845 156.113L331.616 154.004L296.893 205.132L274.121 207.242L308.845 156.113Z" fill="#ffffff" fill-rule="nonzero" opacity="1" stroke="none" vectornator:layerName="Rectangle 38"/>
<path d="M354.388 151.894L377.16 149.785L342.436 200.913L319.664 203.022L354.388 151.894Z" fill="#ffffff" fill-rule="nonzero" opacity="1" stroke="none" vectornator:layerName="Rectangle 39"/>
<path d="M399.932 147.675L422.703 145.565L387.98 196.694L365.208 198.803L399.932 147.675Z" fill="#ffffff" fill-rule="nonzero" opacity="1" stroke="none" vectornator:layerName="Rectangle 40"/>
<path d="M188.527 197.032L188.527 168.683L194.198 168.115L194.198 197.032L415.327 185.692L415.327 191.362L188.527 202.702L188.527 197.032Z" fill="#78bc5b" fill-rule="nonzero" opacity="1" stroke="none" vectornator:layerName="Rectangle 41"/>
<path d="M188.527 202.702L415.328 191.362L415.328 276.413L188.527 282.082L188.527 202.702Z" fill="#795285" fill-rule="nonzero" opacity="1" stroke="none" vectornator:layerName="Rectangle 42"/>
</g>
<g opacity="1" vectornator:layerName="Grouper 1">
<path d="M812.254 197.032L630.947 174.352L629.37 253.732L812.227 270.743L812.254 197.032Z" fill="#e1463b" fill-rule="nonzero" opacity="1" stroke="none" vectornator:layerName="Rectangle 22"/>
<path d="M678.917 180.321L656.217 177.683L689.719 229.605L712.419 232.242L678.917 180.321Z" fill="#ffffff" fill-rule="nonzero" opacity="1" stroke="none" vectornator:layerName="Rectangle 23"/>
<path d="M812.254 197.032L793.143 194.636L808.563 218.533L812.254 214.042L812.254 197.032Z" fill="#ffffff" fill-rule="nonzero" opacity="1" stroke="none" vectornator:layerName="RectIangle 18"/>
<path d="M724.317 185.597L701.617 182.959L735.119 234.88L757.819 237.518L724.317 185.597Z" fill="#ffffff" fill-rule="nonzero" opacity="1" stroke="none" vectornator:layerName="Rectangle 24"/>
<path d="M770.319 191.806L747.516 189.009L780.519 240.156L803.219 242.794L770.319 191.806Z" fill="#ffffff" fill-rule="nonzero" opacity="1" stroke="none" vectornator:layerName="Rectangle 25"/>
<path d="M849.083 248.062C849.083 212.051 842.741 191.362 834.918 191.362C827.095 191.362 820.753 212.051 820.753 248.062C820.753 284.074 834.918 321.772 834.918 321.772C834.918 321.772 849.083 284.074 849.083 248.062Z" fill="#6fac55" fill-rule="nonzero" opacity="1" stroke="none" vectornator:layerName="Ovale 2"/>
<path d="M823.577 201.252C822.539 200.779 820.626 197.787 812.254 197.032L812.254 282.082C812.254 282.082 824.39 283.227 827.647 297.99L827.746 198.071C826.088 201.754 825.068 201.932 823.577 201.252Z" fill="#6fac55" fill-rule="nonzero" opacity="1" stroke="none" vectornator:layerName="Rectangle 26"/>
<path d="M812.254 216.877L630.947 199.867L630.947 270.742L795.259 281.02L812.254 282.082L812.254 216.877Z" fill="#020080" fill-rule="nonzero" opacity="1" stroke="none" vectornator:layerName="Rectangle 9"/>
<path d="M812.254 259.402L630.947 248.062L630.947 250.897L812.254 262.237L812.254 259.402Z" fill="#ffffff" fill-rule="nonzero" opacity="1" stroke="#ffffff" stroke-linecap="butt" stroke-linejoin="round" stroke-width="0.01" vectornator:layerName="Rectan gle 3"/>
<path d="M812.254 238.14L630.947 225.382L630.947 228.217L812.254 240.975L812.254 238.14Z" fill="#ffffff" fill-rule="nonzero" opacity="1" stroke="#ffffff" stroke-linecap="butt" stroke-linejoin="round" stroke-width="0.01" vectornator:layerName="Rectan gle 4"/>
<path d="M798.09 216.877L796.673 216.877L796.673 283.5L798.09 281.186L798.09 216.877Z" fill="#ffffff" fill-rule="nonzero" opacity="1" stroke="none" vectornator:layerName="Rectangle 10"/>
<path d="M764.094 214.042L762.678 211.207L762.678 282.082L764.094 279.172L764.094 214.042Z" fill="#ffffff" fill-rule="nonzero" opacity="1" stroke="none" vectornator:layerName="Rectangle 11"/>
<path d="M747.097 211.207L745.68 209.79L745.68 280.665L747.097 278.14L747.097 211.207Z" fill="#ffffff" fill-rule="nonzero" opacity="1" stroke="none" vectornator:layerName="Rectangle 12"/>
<path d="M730.099 208.372L728.683 208.372L728.683 279.248L730.099 277.002L730.099 208.372Z" fill="#ffffff" fill-rule="nonzero" opacity="1" stroke="none" vectornator:layerName="Rectangle 13"/>
<path d="M713.102 208.372L711.685 206.955L711.685 279.248L713.102 275.946L713.102 208.372Z" fill="#ffffff" fill-rule="nonzero" opacity="1" stroke="none" vectornator:layerName="Rectangle 14"/>
<path d="M696.104 205.537L694.688 204.12L694.688 277.83L696.104 274.859L696.104 205.537Z" fill="#ffffff" fill-rule="nonzero" opacity="1" stroke="none" vectornator:layerName="Rectangle 15"/>
<path d="M781.092 214.042L779.676 214.042L779.676 282.082L781.092 280.187L781.092 214.042Z" fill="#ffffff" fill-rule="nonzero" opacity="1" stroke="none" vectornator:layerName="Rectangle 16"/>
<path d="M812.254 214.043L687.605 202.702L687.605 208.318L812.254 219.712L812.254 214.043Z" fill="#4ba732" fill-rule="nonzero" opacity="1" stroke="none" vectornator:layerName="Rectangle 2"/>
<path d="M687.605 168.683L460.971 146.002L480.532 265.072L669.06 267.907L687.605 168.683Z" fill="#e1463b" fill-rule="nonzero" opacity="1" stroke="none" vectornator:layerName="Rectangle 27"/>
<path d="M659.266 165.833L636.393 163.55L670.34 213.57L685.955 205.159L659.266 165.833Z" fill="#ffffff" fill-rule="nonzero" opacity="1" stroke="none" vectornator:layerName="Rectangle 28"/>
<path d="M613.509 161.251L590.648 158.985L624.829 209.351L647.585 211.461L613.509 161.251Z" fill="#ffffff" fill-rule="nonzero" opacity="1" stroke="none" vectornator:layerName="Rectangle 29"/>
<path d="M567.376 156.113L544.621 154.004L579.319 205.132L602.074 207.242L567.376 156.113Z" fill="#ffffff" fill-rule="nonzero" opacity="1" stroke="none" vectornator:layerName="Rectangle 30"/>
<path d="M521.865 151.894L499.11 149.785L533.809 200.913L556.564 203.022L521.865 151.894Z" fill="#ffffff" fill-rule="nonzero" opacity="1" stroke="none" vectornator:layerName="Rectangle 31"/>
<path d="M476.355 147.675L453.6 145.565L488.299 196.694L511.054 198.803L476.355 147.675Z" fill="#ffffff" fill-rule="nonzero" opacity="1" stroke="none" vectornator:layerName="Rectangle 32"/>
<path d="M687.605 197.032L687.605 168.683L681.939 168.115L681.939 197.032L460.971 185.692L460.971 191.362L687.605 202.702L687.605 197.032Z" fill="#78bc5b" fill-rule="nonzero" opacity="1" stroke="none" vectornator:layerName="Rectangle 33"/>
<path d="M687.605 202.702L460.971 191.362L460.971 276.412L687.605 282.082L687.605 202.702Z" fill="#795285" fill-rule="nonzero" opacity="1" stroke="none" vectornator:layerName="Rectangle 34"/>
<path d="M823.567 248.062C823.567 218.295 827.82 195.615 834.908 194.197L834.908 316.102C834.908 316.102 823.567 284.074 823.567 248.062Z" fill="#ffffff" fill-rule="nonzero" opacity="0" stroke="none" vectornator:layerName="Ovale 3"/>
</g>
</g>
<g id="Body" vectornator:layerName="Body">
<path d="M438.209 369.968L479.344 432.374C483.569 438.007 483.569 438.007 483.239 443.948L477.899 534.397C477.899 545.738 472.229 545.738 467.49 540.209L438.209 506.048L438.209 369.968Z" fill="#c2c2c2" fill-rule="nonzero" opacity="1" stroke="none" vectornator:layerName="Rectangle 2"/>
<path d="M438.007 369.968L396.505 432.374C392.242 438.007 392.242 438.007 392.575 443.948L397.963 534.398C397.963 545.738 403.684 545.738 408.465 540.209L438.007 506.048L438.007 369.968Z" fill="#c2c2c2" fill-rule="nonzero" opacity="1" stroke="none" vectornator:layerName="Rectangle 1"/>
<path d="M392.647 194.197C392.647 67.172 438.007 35.4375 438.007 35.4375C438.007 35.4375 483.368 67.172 483.368 194.197C483.368 321.223 438.007 528.727 438.007 528.727C438.007 528.727 392.647 321.223 392.647 194.197Z" fill="#c2c2c2" fill-rule="nonzero" opacity="1" stroke="none" vectornator:layerName="Ovale 2"/>
</g>
<g id="Logo" vectornator:layerName="Logo">
<path d="M409.657 253.732C409.657 238.075 422.35 225.382 438.007 225.382C453.665 225.382 466.358 238.075 466.358 253.732C466.358 269.39 453.665 282.083 438.007 282.083C422.35 282.083 409.657 269.39 409.657 253.732Z" fill="#78bc5b" fill-rule="nonzero" opacity="1" stroke="none" vectornator:layerName="Ovale 9"/>
<path d="M409.657 182.857C409.657 166.417 422.35 153.09 438.007 153.09C453.665 153.09 466.358 166.417 466.358 182.857C466.358 199.298 453.665 212.625 438.007 212.625C422.35 212.625 409.657 199.298 409.657 182.857Z" fill="#e3e3e3" fill-rule="nonzero" opacity="0" stroke="none" vectornator:layerName="Ovale 10"/>
<path d="M409.657 323.19C409.657 307.533 422.35 294.84 438.007 294.84C453.665 294.84 466.358 307.533 466.358 323.19C466.358 338.847 453.665 351.54 438.007 351.54C422.35 351.54 409.657 338.847 409.657 323.19Z" fill="#e3e3e3" fill-rule="nonzero" opacity="0" stroke="none" vectornator:layerName="Ovale 2"/>
<path d="M412.123 253.732C412.123 239.408 423.712 227.795 438.007 227.795C452.303 227.795 463.892 239.408 463.892 253.732C463.892 268.057 452.303 279.67 438.007 279.67C423.712 279.67 412.123 268.057 412.123 253.732Z" fill="#005628" fill-rule="nonzero" opacity="0" stroke="none" vectornator:layerName="Ovale 7"/>
<path d="M415.821 253.732C415.821 241.407 425.754 231.414 438.007 231.414C450.261 231.414 460.194 241.407 460.194 253.732C460.194 266.058 450.261 276.051 438.007 276.051C425.754 276.051 415.821 266.058 415.821 253.732Z" fill="#78bc5b" fill-rule="nonzero" opacity="1" stroke="none" vectornator:layerName="Ovale 8"/>
<path d="M430.612 248.304C430.612 241.065 438.008 233.827 438.008 233.827C438.008 233.827 445.403 241.065 445.403 248.304C445.403 253.129 440.473 257.955 438.008 257.955C435.542 257.955 430.612 253.129 430.612 248.304Z" fill="#005f2c" fill-rule="nonzero" opacity="1" stroke="none" vectornator:layerName="Ovale 4"/>
<path d="M443.933 259.056C447.747 255.433 455.264 255.542 455.264 255.542C455.264 255.542 455.152 262.899 451.338 266.523C448.795 268.939 443.783 268.866 442.549 267.621C441.315 266.377 441.39 261.472 443.933 259.056Z" fill="#005f2c" fill-rule="nonzero" opacity="1" stroke="none" vectornator:layerName="Ovale 5"/>
<path d="M424.79 266.485C420.939 262.899 420.751 255.544 420.751 255.544C420.751 255.544 428.266 255.36 432.118 258.946C434.685 261.336 434.811 266.24 433.589 267.497C432.368 268.753 427.358 268.875 424.79 266.485Z" fill="#005f2c" fill-rule="nonzero" opacity="1" stroke="none" vectornator:layerName="Ovale 3"/>
<path d="M438.008 270.019L452.799 257.955L440.473 272.431L438.008 272.431L438.008 270.019Z" fill="#78bc5b" fill-rule="nonzero" opacity="1" stroke="none" vectornator:layerName="Rectangle 1"/>
<path d="M423.216 257.955L438.008 270.019L438.008 272.431L435.542 272.431L423.216 257.955Z" fill="#78bc5b" fill-rule="nonzero" opacity="1" stroke="none" vectornator:layerName="Rectangle 2"/>
<path d="M438.008 238.653L440.473 274.844L435.542 274.844L438.008 238.653Z" fill="#78bc5b" fill-rule="nonzero" opacity="1" stroke="none" vectornator:layerName="Rectangle 3"/>
<path d="M438.008 262.78L438.008 260.368L438.008 272.431L438.008 262.78Z" fill="#005f2c" fill-rule="nonzero" opacity="1" stroke="none" vectornator:layerName="Ovale 6"/>
<path d="M396.9 194.197C396.9 73.7423 436.59 41.1075 436.59 41.1075C436.59 41.1075 422.415 72.3248 422.415 192.78C422.415 313.235 436.59 508.882 436.59 508.882C436.59 508.882 396.9 314.653 396.9 194.197Z" fill="#ffffff" fill-rule="nonzero" opacity="0" stroke="none" vectornator:layerName="Ovale 1"/>
<path d="M436.59 260.82C436.59 260.82 436.59 259.402 438.007 259.402C439.425 259.402 439.425 260.82 439.425 260.82L439.425 272.16C439.425 272.16 439.413 273.577 438.007 273.577C436.578 273.577 436.59 272.16 436.59 272.16L436.59 260.82Z" fill="#005f2c" fill-rule="nonzero" opacity="1" stroke="none" vectornator:layerName="Rectangle 4"/>
</g>
<g id="Txt" vectornator:layerName="Txt">
<path d="M205.537 232.47L215.46 232.47L215.46 255.33L242.392 255.15L242.392 265.073L215.614 265.073C205.537 265.073 205.537 260.82 205.537 255.072L205.537 232.47Z" fill="#ffffff" fill-rule="nonzero" opacity="1" stroke="#005f2c" stroke-linecap="butt" stroke-linejoin="round" stroke-width="0.01" vectornator:layerName="Rectangle 5"/>
<path d="M549.99 232.47L576.923 232.47L576.923 240.975L549.99 240.975L549.99 243.734L576.923 243.81L576.923 252.315L549.99 252.315L549.99 255.33L576.923 255.15L576.923 265.073L550.144 265.073C540.068 265.073 540.068 260.82 540.068 255.072L540.068 240.975C540.068 236.65 540.068 232.47 549.99 232.47Z" fill="#ffffff" fill-rule="nonzero" opacity="1" stroke="#005f2c" stroke-linecap="butt" stroke-linejoin="round" stroke-width="0.01" vectornator:layerName="Rectangle 6"/>
<path d="M526.165 255.15L526.165 252.244C526.165 252.244 515.098 252.27 507.53 252.288C496.125 252.315 496.125 247.968 496.125 242.392C496.125 236.722 496.125 232.47 496.125 232.47L507.192 232.47L507.192 243.81L526.165 243.81L526.165 232.47L537.233 232.47C537.233 232.47 537.232 246.645 537.233 255.15C537.233 260.82 537.233 265.072 526.563 265.072C518.6 265.073 507.365 265.072 507.365 265.072L496.125 265.072L496.125 255.072L526.165 255.15Z" fill="#ffffff" fill-rule="nonzero" opacity="1" stroke="#005f2c" stroke-linecap="butt" stroke-linejoin="round" stroke-width="0.01" vectornator:layerName="Rectangle 2"/>
<path d="M626.535 232.47C626.535 232.47 644.963 232.47 654.885 232.47C663.39 232.47 663.39 236.722 663.39 242.393C663.39 243.378 663.347 245.432 663.347 245.432C663.39 250.898 663.39 253.732 654.885 253.732L663.39 265.073L652.05 265.073L643.545 253.733L636.458 253.732L636.458 265.072L626.535 265.073L626.535 245.228L654.885 245.227L654.885 242.393L626.535 242.393L626.535 232.47Z" fill="#ffffff" fill-rule="nonzero" opacity="1" stroke="#005f2c" stroke-linecap="butt" stroke-linejoin="round" stroke-width="0.01" vectornator:layerName="Rectangle 10"/>
<path d="M418.163 310.432L457.853 310.432L457.853 320.355L443.678 320.355L443.678 343.035L433.755 343.035L433.755 320.355L418.163 320.355L418.163 310.432Z" fill="#000000" fill-rule="nonzero" opacity="1" stroke="none" vectornator:layerName="Rectangle 4"/>
<path d="M419.58 164.997L443.678 164.997C453.6 164.997 453.6 169.462 453.6 173.927C453.6 178.392 453.6 176.904 453.6 176.904C459.27 178.392 459.27 180.214 459.27 185.834C459.27 185.834 459.27 182.857 459.27 188.808C459.27 194.764 459.27 199.23 448.584 199.23C440.952 199.23 430.266 199.23 430.266 199.23L419.58 199.23L419.58 179.935L430.285 179.441L430.301 188.853L449.348 188.811L449.348 185.834L419.58 185.834L419.58 176.904L443.678 176.904L443.678 173.927L419.58 173.927L419.58 164.997Z" fill="#000000" fill-rule="nonzero" opacity="1" stroke="none" vectornator:layerName="Rectangle 11"/>
<path d="M594.405 235.305C594.793 234.554 595.843 232.47 597.335 232.47C600.264 232.47 603.194 232.47 606.123 232.47C607.588 232.47 608.798 234.812 609.053 235.305C614.041 244.961 623.7 265.073 623.7 265.073L613.392 265.073L601.729 240.975L597.666 249.445L607.588 249.48L611.982 257.985L593.589 257.943L590.17 265.073L579.758 265.073C579.758 265.073 590.011 243.81 594.405 235.305Z" fill="#ffffff" fill-rule="nonzero" opacity="1" stroke="#005f2c" stroke-linecap="butt" stroke-linejoin="round" stroke-width="0.01" vectornator:layerName="Rectangle 7"/>
<path d="M245.227 232.47L255.15 232.47L255.15 265.073L245.227 265.073L245.227 232.47Z" fill="#ffffff" fill-rule="nonzero" opacity="1" stroke="#005f2c" stroke-linecap="butt" stroke-linejoin="round" stroke-width="0.01" vectornator:layerName="Rectangle 1"/>
<path d="M301.928 232.47L311.85 232.47L311.85 245.175L333.113 245.227L333.113 232.47L343.035 232.47L343.035 265.073L333.113 265.073L333.113 252.315L311.85 252.692L311.85 265.073L301.928 265.073L301.928 232.47Z" fill="#ffffff" fill-rule="nonzero" opacity="1" stroke="#005f2c" stroke-linecap="butt" stroke-linejoin="round" stroke-width="0.01" vectornator:layerName="Rectangle 3"/>
<path d="M345.87 232.47L385.56 232.47L385.56 242.392L371.385 242.392L371.385 265.073L361.463 265.073L361.463 242.392L345.87 242.392L345.87 232.47Z" fill="#ffffff" fill-rule="nonzero" opacity="1" stroke="#005f2c" stroke-linecap="butt" stroke-linejoin="round" stroke-width="0.01" vectornator:layerName="Rectangle 9"/>
<path d="M267.908 232.47C277.83 232.47 299.093 232.47 299.093 232.47L299.093 242.392L267.908 242.466L267.908 255.33L289.266 255.187L289.17 252.315L273.578 252.315L273.578 245.227C273.578 245.227 287.752 245.227 293.943 245.227C299.093 245.227 299.093 249.48 299.093 251.136C299.093 255.15 299.093 255.15 299.093 255.15C299.093 260.82 299.093 265.073 289.17 265.073L268.062 265.073C257.985 265.073 257.985 260.82 257.985 255.072C257.985 249.48 257.985 248.062 257.985 242.413C257.985 236.722 257.985 232.47 267.908 232.47Z" fill="#ffffff" fill-rule="nonzero" opacity="1" stroke="#005f2c" stroke-linecap="butt" stroke-linejoin="round" stroke-width="0.01" vectornator:layerName="Rectangle 1"/>
</g>
</svg>
