<?xml version="1.0" encoding="UTF-8" standalone="no"?>
<!DOCTYPE svg PUBLIC "-//W3C//DTD SVG 1.1//EN" "http://www.w3.org/Graphics/SVG/1.1/DTD/svg11.dtd">
<!-- Created with Vectornator (http://vectornator.io/) -->
<svg height="100%" stroke-miterlimit="10" style="fill-rule:nonzero;clip-rule:evenodd;stroke-linecap:round;stroke-linejoin:round;" version="1.1" viewBox="0 0 841.995 595.35" width="100%" xml:space="preserve" xmlns="http://www.w3.org/2000/svg" xmlns:vectornator="http://vectornator.io" xmlns:xlink="http://www.w3.org/1999/xlink">
<defs>
<path d="M380.792 207.696C380.792 92.5082 421.095 63.7311 421.095 63.7311C421.095 63.7311 461.397 92.5082 461.397 207.696C461.397 322.884 421.095 511.051 421.095 511.051C421.095 511.051 380.792 322.884 380.792 207.696Z" id="Fill"/>
<path d="M403.462 313.099L438.727 313.099L438.727 322.097L426.132 322.097L426.132 342.664L417.316 342.664L417.316 322.097L403.462 322.097L403.462 313.099Z" id="Fill_2"/>
<path d="M404.727 181.221L404.727 189.325L426.134 189.325L426.134 192.017L404.727 191.989L404.727 192.017L404.727 200.122L404.727 212.251L414.528 212.251C414.873 212.251 423.839 212.251 430.493 212.251C439.987 212.251 439.989 208.215 439.989 202.814C439.989 197.418 439.989 200.122 439.989 200.122C439.989 195.025 439.973 193.367 434.936 192.017C434.936 192.017 434.936 193.374 434.936 189.325C434.936 185.276 434.95 181.221 426.134 181.221L404.727 181.221ZM414.528 200.122L431.159 200.122L431.159 202.814L414.528 202.843L414.528 200.122Z" id="Fill_3"/>
<path d="M421.386 58.603C421.386 58.603 388.647 79.1752 378.571 161.441L195.652 180.626C195.115 180.682 194.702 181.152 194.708 181.703L194.819 192.273C194.819 192.273 82.5927 205.146 78.8143 207.717C78.8144 207.717 63.5495 187.156 56.1576 214.149C47.0298 247.482 48.6121 280.99 68.7632 342.69C68.7632 342.69 75.8007 319.435 77.5649 313.133C80.0838 304.135 78.6706 297.702 90.1705 292.56L193.569 284.937C194.174 284.893 194.708 285.367 194.708 285.986L194.708 291.455C194.708 292.054 195.176 292.548 195.763 292.532L336.146 288.649L377.924 287.915L386.946 350.916L394.697 403.352L378.405 424.954C378.278 425.149 377.141 431.153 377.155 431.387C377.155 431.387 378.532 468.865 380.932 496.932C381.948 508.826 382.133 523.861 383.458 525.213C385.977 527.784 387.23 530.363 394.787 527.792L413.417 505.405L421.108 536.747L429.049 504.272C433.044 509.322 445.804 525.4 448.929 527.792C453.967 531.648 459.026 526.501 460.286 521.36L464.228 451.507L465.311 432.662C465.323 432.432 465.303 428.81 462.784 424.954L449.331 403.35L455.458 350.888L463.77 287.101L506.987 288.649L647.037 292.532C647.624 292.548 648.092 292.054 648.092 291.455L648.092 287.261C648.092 286.648 648.603 286.148 649.203 286.184L753.879 292.56C762.53 297.702 762.876 303.079 766.318 315.684C769.842 328.592 773.87 337.532 773.87 337.532C790.243 297.685 797.803 242.423 783.949 207.717C782.446 203.952 778.759 199.045 774.037 200.009C770.145 200.803 766.695 204.657 765.596 205.988C765.361 206.272 765.235 206.441 765.235 206.441L753.879 205.138L649.008 192.414C648.483 192.35 648.092 191.877 648.092 191.337L648.092 181.674C648.092 181.128 647.68 180.681 647.148 180.626L464.228 161.441C455.412 81.746 421.386 58.603 421.386 58.603Z" id="Fill_4"/>
<filter color-interpolation-filters="sRGB" filterUnits="userSpaceOnUse" height="161.632" id="Filter" width="348.073" x="439.879" y="163.369">
<feGaussianBlur in="SourceGraphic" result="Blur" stdDeviation="0.647219"/>
</filter>
</defs>
<clipPath id="ArtboardFrame">
<rect height="595.35" width="841.995" x="0" y="0"/>
</clipPath>
<g clip-path="url(#ArtboardFrame)" id="Calque-1" vectornator:layerName="Calque 1">
<path d="M-61.6205 5.68434e-14L841.995 5.68434e-14L841.995 682.076L-61.6205 682.076L-61.6205 5.68434e-14Z" fill="#3395ff" fill-rule="nonzero" opacity="0" stroke="none" vectornator:layerName="Rectangle 1"/>
<g opacity="1" vectornator:layerName="Grouper 6">
<g opacity="1" vectornator:layerName="Ovale 1">
<use fill="#c2c2c2" fill-opacity="0" fill-rule="nonzero" stroke="none" xlink:href="#Fill"/>
<mask height="480.045" id="StrokeMask" maskUnits="userSpaceOnUse" width="91.5064" x="375.341" y="57.0332">
<rect fill="#ffffff" height="480.045" stroke="none" width="91.5064" x="375.341" y="57.0332"/>
<use fill="#000000" fill-rule="evenodd" stroke="none" xlink:href="#Fill"/>
</mask>
<use fill="none" mask="url(#StrokeMask)" stroke="#ffffff" stroke-linecap="butt" stroke-linejoin="miter" stroke-width="10.9019" xlink:href="#Fill"/>
</g>
<g opacity="1" vectornator:layerName="Grouper 5">
<path d="M481.36 204.901L463.023 177.324L463.495 203.446L481.36 204.901Z" fill="none" opacity="1" stroke="#ffffff" stroke-linecap="butt" stroke-linejoin="round" stroke-width="4.8709" vectornator:layerName="Rectangle 32"/>
<path d="M395.906 197.413C395.906 182.505 407.183 170.42 421.095 170.42C435.006 170.42 446.284 182.505 446.284 197.413C446.284 212.321 435.006 224.406 421.095 224.406C407.183 224.406 395.906 212.321 395.906 197.413Z" fill="#ffffff" fill-opacity="0" fill-rule="nonzero" opacity="1" stroke="#ffffff" stroke-linecap="butt" stroke-linejoin="round" stroke-width="3.17222" vectornator:layerName="Ovale 3"/>
<path d="M395.906 324.668C395.906 310.47 407.183 298.96 421.095 298.96C435.006 298.96 446.284 310.47 446.284 324.668C446.284 338.866 435.006 350.376 421.095 350.376C407.183 350.376 395.906 338.866 395.906 324.668Z" fill="none" opacity="1" stroke="#ffffff" stroke-linecap="butt" stroke-linejoin="round" stroke-width="3.17222" vectornator:layerName="Ovale 4"/>
<g opacity="1" vectornator:layerName="Grouper 1">
<path d="M420.748 234.401C406.115 234.401 394.231 246.533 394.231 261.497C394.231 276.461 406.115 288.593 420.748 288.593C435.381 288.593 447.233 276.461 447.233 261.497C447.233 246.532 435.38 234.401 420.748 234.401ZM420.748 238.188C433.29 238.188 443.426 248.621 443.426 261.497C443.426 274.373 433.29 284.838 420.748 284.838C408.206 284.838 398.038 274.373 398.038 261.497C398.038 248.621 408.206 238.188 420.748 238.188Z" fill="#ffffff" fill-rule="nonzero" opacity="1" stroke="#ffffff" stroke-linecap="butt" stroke-linejoin="round" stroke-opacity="0.00393795" stroke-width="2.76723" vectornator:layerName="Courbe 7"/>
<path d="M438.404 263.39C438.404 263.39 430.698 263.294 426.793 267.079C424.601 269.205 424.287 273.036 424.97 275.012L435.877 265.937L426.889 276.71C428.979 277.192 432.395 276.801 434.374 274.882C438.278 271.096 438.404 263.39 438.404 263.39Z" fill="#ffffff" fill-rule="nonzero" opacity="1" stroke="#ffffff" stroke-linecap="butt" stroke-linejoin="round" stroke-opacity="0" stroke-width="2.76723" vectornator:layerName="Courbe 6"/>
<path d="M403.059 263.39C403.059 263.39 403.275 271.07 407.218 274.816C409.163 276.665 412.444 277.088 414.543 276.644L405.586 265.937L416.558 275.045C417.309 273.129 416.983 269.115 414.702 266.949C410.76 263.203 403.059 263.39 403.059 263.39Z" fill="#ffffff" fill-rule="nonzero" opacity="1" stroke="#ffffff" stroke-linecap="butt" stroke-linejoin="round" stroke-opacity="0" stroke-width="2.76723" vectornator:layerName="Courbe 5"/>
<path d="M420.748 240.702C420.748 240.702 413.167 248.288 413.167 255.849C413.167 260.16 416.789 264.256 419.436 265.414L420.748 245.762L422.059 265.414C424.705 264.245 428.297 260.151 428.297 255.849C428.297 248.288 420.748 240.702 420.748 240.702Z" fill="#ffffff" fill-rule="nonzero" opacity="1" stroke="#ffffff" stroke-linecap="butt" stroke-linejoin="round" stroke-opacity="0" stroke-width="2.76723" vectornator:layerName="Courbe 4"/>
<path d="M420.732 270.962L420.732 268.441L420.732 281.044L420.732 270.962Z" fill="#000000" fill-rule="nonzero" opacity="1" stroke="#ffffff" stroke-linecap="butt" stroke-linejoin="round" stroke-width="2.76723" vectornator:layerName="Ovale 10"/>
</g>
<g opacity="1" vectornator:layerName="Rectangle 13">
<use fill="#000000" fill-opacity="0" fill-rule="nonzero" stroke="none" xlink:href="#Fill_2"/>
<mask height="29.5643" id="StrokeMask_2" maskUnits="userSpaceOnUse" width="35.2645" x="403.462" y="313.099">
<rect fill="#000000" height="29.5643" stroke="none" width="35.2645" x="403.462" y="313.099"/>
<use fill="#ffffff" fill-rule="evenodd" stroke="none" xlink:href="#Fill_2"/>
</mask>
<use fill="none" mask="url(#StrokeMask_2)" stroke="#ffffff" stroke-linecap="butt" stroke-linejoin="miter" stroke-width="13.0892" xlink:href="#Fill_2"/>
</g>
<g opacity="1" vectornator:layerName="Courbe 2">
<use fill="#000000" fill-opacity="0" fill-rule="nonzero" stroke="none" xlink:href="#Fill_3"/>
<mask height="31.0299" id="StrokeMask_3" maskUnits="userSpaceOnUse" width="35.2623" x="404.727" y="181.221">
<rect fill="#000000" height="31.0299" stroke="none" width="35.2623" x="404.727" y="181.221"/>
<use fill="#ffffff" fill-rule="evenodd" stroke="none" xlink:href="#Fill_3"/>
</mask>
<use fill="none" mask="url(#StrokeMask_3)" stroke="#ffffff" stroke-linecap="butt" stroke-linejoin="miter" stroke-width="13.0892" xlink:href="#Fill_3"/>
</g>
<g opacity="1" vectornator:layerName="Grouper 4">
<g opacity="1" vectornator:layerName="Courbe 4">
<use fill="#ffffff" fill-opacity="0" fill-rule="nonzero" stroke="none" xlink:href="#Fill_4"/>
<mask height="478.144" id="StrokeMask_4" maskUnits="userSpaceOnUse" width="740.352" x="50.8216" y="58.603">
<rect fill="#000000" height="478.144" stroke="none" width="740.352" x="50.8216" y="58.603"/>
<use fill="#ffffff" fill-rule="evenodd" stroke="none" xlink:href="#Fill_4"/>
</mask>
<use fill="none" mask="url(#StrokeMask_4)" stroke="#ffffff" stroke-linecap="butt" stroke-linejoin="miter" stroke-width="13.0892" xlink:href="#Fill_4"/>
</g>
<path d="M201.713 203.718L192.205 218.746L201.713 203.718Z" fill="#ffffff" fill-rule="nonzero" opacity="1" stroke="#ffffff" stroke-linecap="butt" stroke-linejoin="round" stroke-width="4.8709" vectornator:layerName="Rectangle 28"/>
<path d="M88.6008 210.267L105.594 208.094L93.3667 227.42L88.6003 227.892L88.6008 210.267Z" fill="none" opacity="1" stroke="#ffffff" stroke-linecap="butt" stroke-linejoin="round" stroke-width="4.8709" vectornator:layerName="RectIangle 19"/>
<path d="M166.79 199.897L186.974 197.505L172.425 220.5L152.749 222.101L166.79 199.897Z" fill="none" opacity="1" stroke="#ffffff" stroke-linecap="butt" stroke-linejoin="round" stroke-width="4.8709" vectornator:layerName="Rectangle 29"/>
<path d="M125.888 205.527L146.162 202.991L132.571 224.474L112.795 226.221L125.888 205.527Z" fill="none" opacity="1" stroke="#ffffff" stroke-linecap="butt" stroke-linejoin="round" stroke-width="4.8709" vectornator:layerName="Rectangle 30"/>
<path d="M193.125 216.7L191.876 217.975L191.876 240.135L178.021 241.127L178.021 219.278L176.771 220.554L176.771 241.212L162.916 242.204L162.916 220.554L161.639 220.554L161.639 242.289L147.784 243.281L147.784 221.829L146.535 223.132L146.535 243.366L132.68 244.357L132.68 223.132L131.43 225.683L131.43 244.471L117.575 245.463L117.575 225.683L116.298 225.683L116.298 245.548L102.443 246.539L102.443 228.262L101.193 228.262L101.193 246.624L88.5878 247.531L88.5878 250.11L101.193 249.203L101.193 266.036L88.5878 266.829L88.5878 269.408L101.193 268.615L101.193 286.581L102.443 288.678L102.443 268.53L116.298 267.651L116.298 285.674L117.575 287.403L117.575 267.566L131.43 266.688L131.43 284.739L132.68 287.403L132.68 266.603L146.535 265.724L146.535 283.804L147.784 286.099L147.784 265.639L161.639 264.761L161.639 282.783L162.916 284.824L162.916 264.676L176.771 263.797L176.771 281.82L178.021 284.824L178.021 263.712L191.876 262.834L191.876 280.828L193.125 283.549L193.125 262.749L198.538 262.402L198.592 259.82L193.125 260.17L193.125 242.6L198.482 242.218L198.427 239.643L193.125 240.022L193.125 216.7ZM191.876 242.714L191.876 260.255L178.021 261.133L178.021 243.706L191.876 242.714ZM176.771 243.791L176.771 261.218L162.916 262.097L162.916 244.782L176.771 243.791ZM161.639 244.867L161.639 262.182L147.784 263.06L147.784 245.859L161.639 244.867ZM146.535 245.944L146.535 263.145L132.68 264.024L132.68 246.936L146.535 245.944ZM131.43 247.049L131.43 264.109L117.575 264.987L117.575 248.041L131.43 247.049ZM116.298 248.126L116.298 265.072L102.443 265.951L102.443 249.118L116.298 248.126Z" fill="#ffffff" fill-rule="nonzero" opacity="1" stroke="#ffffff" stroke-linecap="butt" stroke-linejoin="bevel" stroke-width="2.71905" vectornator:layerName="Courbe 5"/>
<path d="M88.6008 225.692L199.432 215.409L199.432 220.501L88.6008 230.833L88.6008 225.692Z" fill="#ffffff" fill-rule="nonzero" opacity="1" stroke="#ffffff" stroke-linecap="butt" stroke-linejoin="round" stroke-opacity="0" stroke-width="4.8709" vectornator:layerName="Rectangle 25"/>
<path d="M224.63 181.975L244.967 179.905L223.858 211.627L204.191 212.689L224.63 181.975Z" fill="none" opacity="1" stroke="#ffffff" stroke-linecap="butt" stroke-linejoin="round" stroke-width="4.8709" vectornator:layerName="Rectangle 36"/>
<path d="M265.314 177.82L285.641 175.765L263.382 209.15L243.731 210.255L265.314 177.82Z" fill="none" opacity="1" stroke="#ffffff" stroke-linecap="butt" stroke-linejoin="round" stroke-width="4.8709" vectornator:layerName="Rectangle 37"/>
<path d="M306.334 173.161L326.566 171.248L302.531 207.195L282.757 208.592L306.334 173.161Z" fill="none" opacity="1" stroke="#ffffff" stroke-linecap="butt" stroke-linejoin="round" stroke-width="4.8709" vectornator:layerName="Rectangle 38"/>
<path d="M346.799 169.335L367.032 167.422L341.71 205.475L322.076 206.489L346.799 169.335Z" fill="none" opacity="1" stroke="#ffffff" stroke-linecap="butt" stroke-linejoin="round" stroke-width="4.8709" vectornator:layerName="Rectangle 39"/>
<path d="M361.364 204.432L379.013 177.909L378.167 203.76L361.364 204.432Z" fill="none" opacity="1" stroke="#ffffff" stroke-linecap="butt" stroke-linejoin="round" stroke-width="4.8709" vectornator:layerName="Rectangle 40"/>
<path d="M199.432 210.267L199.432 184.559L204.47 184.044L204.47 210.267L377.956 201.187L377.833 206.305L199.432 215.409L199.432 210.267Z" fill="#ffffff" fill-rule="nonzero" opacity="1" stroke="none" vectornator:layerName="Rectangle 41"/>
<path d="M214.545 242.402L223.362 242.402L223.362 263.132L247.291 262.969L247.291 271.966L223.499 271.966C214.545 271.966 214.545 268.11 214.545 262.898L214.545 242.402Z" fill="#ffffff" fill-rule="nonzero" opacity="1" stroke="none" vectornator:layerName="Rectangle 9"/>
<path d="M249.81 242.402L258.626 242.402L258.626 271.966L249.81 271.966L249.81 242.402Z" fill="#ffffff" fill-rule="nonzero" opacity="1" stroke="none" vectornator:layerName="Rectangle 16"/>
<path d="M300.188 242.402L309.004 242.402L309.004 253.923L327.896 253.971L327.896 242.402L336.712 242.402L336.712 271.966L327.896 271.966L327.896 260.398L309.004 260.74L309.004 271.966L300.188 271.966L300.188 242.402Z" fill="#ffffff" fill-rule="nonzero" opacity="1" stroke="none" vectornator:layerName="Rectangle 17"/>
<path d="M339.231 242.402L374.495 242.402L374.495 251.4L361.901 251.4L361.901 271.966L353.085 271.966L353.085 251.4L339.231 251.4L339.231 242.402Z" fill="#ffffff" fill-rule="nonzero" opacity="1" stroke="none" vectornator:layerName="Rectangle 18"/>
<path d="M269.961 242.402C278.777 242.402 297.669 242.402 297.669 242.402L297.669 251.4L269.961 251.466L269.961 263.132L288.938 263.002L288.853 260.398L274.999 260.398L274.999 253.971C274.999 253.971 287.593 253.971 293.094 253.971C297.669 253.971 297.669 257.827 297.669 259.329C297.669 262.969 297.669 262.969 297.669 262.969C297.669 268.11 297.669 271.966 288.853 271.966L270.098 271.966C261.145 271.966 261.145 268.11 261.145 262.898C261.145 257.827 261.145 256.542 261.145 251.419C261.145 246.258 261.145 242.402 269.961 242.402Z" fill="#ffffff" fill-rule="nonzero" opacity="1" stroke="none" vectornator:layerName="Rectangle 19"/>
</g>
<g opacity="1" vectornator:layerName="Grouper 3">
<path d="M753.612 225.692L642.862 215.409L642.862 220.501L753.612 230.833L753.612 225.692Z" fill="#ffffff" fill-rule="nonzero" opacity="1" stroke="none" vectornator:layerName="Rectangle 2"/>
<path d="M642.862 184.559L441.497 163.993L441.497 282.25L642.862 287.391L642.862 184.559Z" fill="#ffffff" fill-opacity="0" fill-rule="nonzero" opacity="1" stroke="none" vectornator:layerName="Rectangle 27"/>
<path d="M642.862 210.267L642.862 184.559L637.828 184.044L637.828 210.267L463.953 201.16L464.371 206.294L642.862 215.409L642.862 210.267Z" fill="#ffffff" fill-rule="nonzero" opacity="1" stroke="none" vectornator:layerName="Rectangle 33"/>
<g filter="url(#Filter)" opacity="1" vectornator:blur="1.29444" vectornator:layerName="Grouper 2">
<path d="M640.531 203.637L649.758 218.232L640.531 203.637Z" fill="none" opacity="1" stroke="#ffffff" stroke-linecap="butt" stroke-linejoin="round" stroke-width="4.8709" vectornator:layerName="Rectangle 23"/>
<path d="M753.612 210.267L736.632 208.094L748.924 227.887L753.683 228.117L753.612 210.267Z" fill="none" opacity="1" stroke="#ffffff" stroke-linecap="butt" stroke-linejoin="round" stroke-width="4.8709" vectornator:layerName="RectIangle 18"/>
<path d="M675.48 199.897L655.311 197.505L669.779 220.39L689.49 222.356L675.48 199.897Z" fill="none" opacity="1" stroke="#ffffff" stroke-linecap="butt" stroke-linejoin="round" stroke-width="4.8709" vectornator:layerName="Rectangle 24"/>
<path d="M716.353 205.527L696.093 202.991L709.557 224.288L729.194 225.838L716.353 205.527Z" fill="none" opacity="1" stroke="#ffffff" stroke-linecap="butt" stroke-linejoin="round" stroke-width="4.8709" vectornator:layerName="Rectangle 25"/>
<path d="M649.147 216.7L649.147 240.05L644.103 239.686L644.066 242.263L649.147 242.629L649.147 260.17L644.103 259.847L644.161 262.429L649.147 262.749L649.147 283.549L650.424 280.828L650.424 262.834L664.251 263.712L664.251 284.824L665.529 281.82L665.529 263.797L679.356 264.676L679.356 284.824L680.605 282.783L680.605 264.761L694.46 265.639L694.46 286.099L695.71 283.804L695.71 265.724L709.565 266.603L709.565 287.403L710.814 284.739L710.814 266.688L724.669 267.566L724.669 287.403L725.919 285.674L725.919 267.651L739.774 268.53L739.774 288.678L741.023 286.581L741.023 268.615L753.601 269.408L753.601 266.829L741.023 266.036L741.023 249.203L753.601 250.11L753.601 247.531L741.023 246.624L741.023 228.262L739.774 228.262L739.774 246.539L725.919 245.548L725.919 225.683L724.669 225.683L724.669 245.463L710.814 244.471L710.814 225.683L709.565 223.132L709.565 244.357L695.71 243.366L695.71 223.132L694.46 221.829L694.46 243.281L680.605 242.289L680.605 220.554L679.356 220.554L679.356 242.204L665.529 241.212L665.529 220.554L664.251 219.278L664.251 241.127L650.424 240.135L650.424 217.975L649.147 216.7ZM650.424 242.714L664.251 243.706L664.251 261.133L650.424 260.255L650.424 242.714ZM665.529 243.791L679.356 244.782L679.356 262.097L665.529 261.218L665.529 243.791ZM680.605 244.867L694.46 245.859L694.46 263.06L680.605 262.182L680.605 244.867ZM695.71 245.944L709.565 246.936L709.565 264.024L695.71 263.145L695.71 245.944ZM710.814 247.049L724.669 248.041L724.669 264.987L710.814 264.109L710.814 247.049ZM725.919 248.126L739.774 249.118L739.774 265.951L725.919 265.072L725.919 248.126Z" fill="#ffffff" fill-rule="nonzero" opacity="1" stroke="#ffffff" stroke-linecap="butt" stroke-linejoin="round" stroke-width="2.71905" vectornator:layerName="Courbe 6"/>
<path d="M617.682 181.975L597.36 179.905L618.708 212.009L638.178 212.798L617.682 181.975Z" fill="none" opacity="1" stroke="#ffffff" stroke-linecap="butt" stroke-linejoin="round" stroke-width="4.8709" vectornator:layerName="Rectangle 28"/>
<path d="M577.028 177.82L556.716 175.765L579.163 209.524L598.977 210.829L577.028 177.82Z" fill="none" opacity="1" stroke="#ffffff" stroke-linecap="butt" stroke-linejoin="round" stroke-width="4.8709" vectornator:layerName="Rectangle 29"/>
<path d="M536.038 173.161L515.82 171.248L540.033 207.661L559.499 208.443L536.038 173.161Z" fill="none" opacity="1" stroke="#ffffff" stroke-linecap="butt" stroke-linejoin="round" stroke-width="4.8709" vectornator:layerName="Rectangle 30"/>
<path d="M495.602 169.335L475.384 167.422L501.002 205.948L520.632 206.977L495.602 169.335Z" fill="none" opacity="1" stroke="#ffffff" stroke-linecap="butt" stroke-linejoin="round" stroke-width="4.8709" vectornator:layerName="Rectangle 31"/>
<path d="M520.591 242.402L544.52 242.402L544.52 250.115L520.591 250.115L520.591 252.616L544.52 252.685L544.52 260.398L520.591 260.398L520.591 263.132L544.52 262.969L544.52 271.966L520.728 271.966C511.775 271.966 511.775 268.11 511.775 262.898L511.775 250.115C511.775 246.192 511.775 242.402 520.591 242.402Z" fill="#ffffff" fill-rule="nonzero" opacity="1" stroke="none" vectornator:layerName="Rectangle 10"/>
<path d="M499.423 262.969L499.423 260.333C499.423 260.333 489.589 260.357 482.865 260.373C472.732 260.398 472.732 256.455 472.732 251.4C472.732 246.258 472.732 242.402 472.732 242.402L482.565 242.402L482.565 252.685L499.423 252.685L499.423 242.402L509.256 242.402C509.256 242.402 509.256 255.256 509.256 262.969C509.256 268.11 509.256 271.966 499.776 271.966C492.701 271.966 482.718 271.966 482.718 271.966L472.732 271.966L472.732 262.898L499.423 262.969Z" fill="#ffffff" fill-rule="nonzero" opacity="1" stroke="none" vectornator:layerName="Rectangle 11"/>
<path d="M588.601 242.402C588.601 242.402 604.974 242.402 613.79 242.402C621.347 242.402 621.347 246.258 621.347 251.4C621.347 252.293 621.308 254.156 621.308 254.156C621.347 259.112 621.347 261.683 613.79 261.683L621.347 271.966L611.271 271.966L603.714 261.683L597.417 261.683L597.417 271.966L588.601 271.966L588.601 253.971L613.79 253.971L613.79 251.4L588.601 251.4L588.601 242.402Z" fill="#ffffff" fill-rule="nonzero" opacity="1" stroke="none" vectornator:layerName="Rectangle 12"/>
<path d="M562.657 242.402C561.332 242.402 560.392 244.3 560.047 244.981C556.143 252.693 547.053 271.958 547.053 271.958L556.299 271.958L559.325 265.526L573.875 265.526L576.929 271.958L586.091 271.958C586.091 271.958 577.502 253.737 573.069 244.981C572.843 244.534 571.761 242.402 570.459 242.402C567.856 242.402 565.26 242.402 562.657 242.402ZM566.572 250.11L570.237 257.818L562.963 257.79L566.572 250.11Z" fill="#ffffff" fill-rule="nonzero" opacity="1" stroke="none" vectornator:layerName="Courbe 3"/>
</g>
</g>
</g>
</g>
</g>
</svg>
