<?xml version="1.0" encoding="UTF-8" standalone="no"?>
<!DOCTYPE svg PUBLIC "-//W3C//DTD SVG 1.1//EN" "http://www.w3.org/Graphics/SVG/1.1/DTD/svg11.dtd">
<!-- Created with Vectornator (http://vectornator.io/) -->
<svg height="100%" stroke-miterlimit="10" style="fill-rule:nonzero;clip-rule:evenodd;stroke-linecap:round;stroke-linejoin:round;" version="1.1" viewBox="0 0 1080 1080" width="100%" xml:space="preserve" xmlns="http://www.w3.org/2000/svg" xmlns:vectornator="http://vectornator.io" xmlns:xlink="http://www.w3.org/1999/xlink">
<defs/>
<g id="Calque-1" vectornator:layerName="Calque 1">
<g opacity="1" vectornator:layerName="Grouper 1">
<path d="M400.227 220C345.117 220 300.415 260.275 300.415 309.98C300.415 359.686 345.117 400 400.227 400C455.336 400 500 359.686 500 309.98C500 260.275 455.336 220 400.227 220ZM400.227 229.725C400.227 229.725 433.484 258.889 433.484 288.078C433.484 304.563 417.614 320.942 406.009 325.596L400.227 249.176L394.406 325.596C382.803 320.929 366.969 304.552 366.969 288.078C366.969 258.889 400.227 229.725 400.227 229.725ZM322.6 317.294C322.6 317.294 356.412 316.552 373.734 331.013C383.664 339.302 385.456 355.04 382.275 362.521L333.673 327.02L372.978 368.412C363.754 370.098 349.297 368.526 340.778 361.414C323.456 346.954 322.6 317.294 322.6 317.294ZM477.816 317.294C477.816 317.294 477.321 346.96 460.166 361.573C451.455 368.992 436.353 370.566 427.173 368.689L466.742 327.02L418.481 362.324C415.577 354.636 417.314 339.588 426.871 331.447C444.026 316.835 477.816 317.294 477.816 317.294ZM400.227 332.871C406.602 332.871 406.576 338.564 406.576 338.564L406.576 384.305C406.576 384.305 406.546 389.998 400.227 389.998C393.796 389.998 393.839 384.305 393.84 384.305L393.84 338.564C393.84 338.564 393.851 332.871 400.227 332.871Z" fill="#ffffff" fill-rule="nonzero" opacity="1" stroke="none" vectornator:layerName="Courbe 1"/>
<path d="M98.7815 407.47L149.414 407.47L149.414 522.429L286.844 521.525L286.844 571.424L150.202 571.424C98.7815 571.424 98.7815 550.039 98.7815 521.134L98.7815 407.47Z" fill="#ffffff" fill-rule="nonzero" opacity="1" stroke="none" vectornator:layerName="Rectangle 12"/>
<path d="M347.489 587.543L482.93 587.543L482.93 630.314L347.489 630.314L347.489 644.187L482.93 644.571L482.93 687.341L347.489 687.341L347.489 702.502L482.93 701.598L482.93 751.497L348.266 751.497C297.59 751.497 297.59 730.112 297.59 701.207L297.59 630.314C297.59 608.562 297.59 587.543 347.489 587.543Z" fill="#ffffff" fill-rule="nonzero" opacity="1" stroke="none" vectornator:layerName="Rectangle 13"/>
<path d="M236.212 701.598L236.212 686.982C236.212 686.982 185.58 687.114 150.957 687.205C98.7815 687.341 98.7815 665.479 98.7815 637.442C98.7815 608.929 98.7815 587.543 98.7815 587.543L149.414 587.543L149.414 644.571L236.212 644.571L236.212 587.543L286.844 587.543C286.844 587.543 286.844 658.828 286.844 701.598C286.844 730.112 286.844 751.497 238.032 751.497C201.601 751.497 150.202 751.497 150.202 751.497L98.7815 751.497L98.7815 701.207L236.212 701.598Z" fill="#ffffff" fill-rule="nonzero" opacity="1" stroke="none" vectornator:layerName="Rectangle 14"/>
<path d="M681.638 587.22C681.638 587.22 774.308 587.22 824.207 587.22C866.977 587.22 866.977 608.606 866.977 637.119C866.977 642.074 866.761 652.405 866.761 652.405C866.977 679.89 866.977 694.147 824.207 694.147L866.977 751.174L809.95 751.174L767.179 694.147L731.537 694.147L731.537 751.174L681.638 751.174L681.638 651.376L824.207 651.376L824.207 637.119L681.638 637.119L681.638 587.22Z" fill="#ffffff" fill-rule="nonzero" opacity="1" stroke="none" vectornator:layerName="Rectangle 15"/>
<path d="M498.141 230.206L697.737 230.206L697.737 279.708L626.453 279.708L626.453 392.855L576.554 392.855L576.554 279.708L498.141 279.708L498.141 230.206Z" fill="#ffffff" fill-rule="nonzero" opacity="1" stroke="none" vectornator:layerName="Rectangle 16"/>
<path d="M98.7815 228.398L212.962 228.398C259.978 228.398 259.978 249.639 259.978 270.88C259.978 292.12 259.978 285.04 259.978 285.04C286.844 292.12 286.844 300.785 286.844 327.522C286.844 327.522 286.844 313.361 286.844 341.67C286.844 370.003 286.844 391.244 236.212 391.244C200.046 391.244 149.414 391.244 149.414 391.244L98.7815 391.244L98.7815 299.459L149.504 297.111L149.578 341.881L239.828 341.682L239.828 327.522L98.7815 327.522L98.7815 285.04L212.962 285.04L212.962 270.88L98.7815 270.88L98.7815 228.398Z" fill="#ffffff" fill-rule="nonzero" opacity="1" stroke="none" vectornator:layerName="Rectangle 17"/>
<path d="M546.972 601.551C548.923 597.773 554.202 587.294 561.704 587.294C576.436 587.294 591.168 587.294 605.9 587.294C613.266 587.294 619.35 599.07 620.632 601.551C645.72 650.108 694.292 751.248 694.292 751.248L642.454 751.248L583.802 630.065L563.37 672.659L613.266 672.835L635.364 715.606L542.87 715.394L525.672 751.248L473.311 751.248C473.311 751.248 524.873 644.321 546.972 601.551Z" fill="#ffffff" fill-rule="nonzero" opacity="1" stroke="none" vectornator:layerName="Rectangle 18"/>
<path d="M298.377 407.47L348.276 407.47L348.276 571.424L298.377 571.424L298.377 407.47Z" fill="#ffffff" fill-rule="nonzero" opacity="1" stroke="none" vectornator:layerName="Rectangle 19"/>
<path d="M560.878 407.47L610.777 407.47L610.777 471.361L717.703 471.626L717.703 407.47L767.602 407.47L767.602 571.424L717.703 571.424L717.703 507.268L610.777 509.165L610.777 571.424L560.878 571.424L560.878 407.47Z" fill="#ffffff" fill-rule="nonzero" opacity="1" stroke="none" vectornator:layerName="Rectangle 20"/>
<path d="M780.393 407.47L979.989 407.47L979.989 457.369L908.705 457.369L908.705 571.424L858.806 571.424L858.806 457.369L780.393 457.369L780.393 407.47Z" fill="#ffffff" fill-rule="nonzero" opacity="1" stroke="none" vectornator:layerName="Rectangle 21"/>
<path d="M406.78 407.47C451.491 407.47 547.301 407.47 547.301 407.47L547.301 457.369L406.78 457.738L406.78 522.429L503.024 521.712L502.59 507.268L432.329 507.268L432.329 471.626C432.329 471.626 496.202 471.626 524.097 471.626C547.301 471.626 547.301 493.011 547.301 501.338C547.301 521.525 547.301 521.525 547.301 521.525C547.301 550.039 547.301 571.424 502.59 571.424L407.476 571.424C362.069 571.424 362.069 550.039 362.069 521.134C362.069 493.011 362.069 485.883 362.069 457.474C362.069 428.855 362.069 407.47 406.78 407.47Z" fill="#ffffff" fill-rule="nonzero" opacity="1" stroke="none" vectornator:layerName="Rectangle 22"/>
</g>
</g>
</svg>
